<svg xmlns="http://www.w3.org/2000/svg" width="461" height="109" viewBox="0 0 461 109">
<g>
<path d="M 0.37 25.08 C0.17,24.85 0.00,43.64 0.00,66.83 L 0.00 24.00 L 7.89 24.00 C13.30,24.00 15.93,24.39 16.24,25.25 C16.49,25.94 18.21,34.26 20.06,43.75 C21.91,53.24 23.68,61.00 24.00,61.00 C24.32,61.00 26.07,54.36 27.89,46.25 C29.71,38.14 31.62,29.81 32.14,27.75 L 33.08 24.00 L 48.50 24.00 L 52.38 41.25 C54.52,50.74 56.60,59.14 57.01,59.91 C57.50,60.83 58.12,59.60 58.79,56.41 C59.36,53.71 61.09,45.31 62.64,37.75 L 65.46 24.00 L 72.73 24.00 C77.47,24.00 80.00,24.39 80.00,25.13 C80.00,27.66 67.82,82.56 67.10,83.29 C66.67,83.73 62.54,83.95 57.94,83.79 L 49.56 83.50 L 45.79 66.50 L 45.66 65.90 C41.55,47.32 41.04,45.02 40.67,45.04 C40.62,45.05 40.56,45.10 40.50,45.16 C40.28,45.39 38.24,53.86 35.97,64.01 C33.70,74.15 31.63,82.80 31.36,83.22 C31.10,83.65 27.07,84.00 22.42,84.00 C14.59,84.00 13.89,83.83 13.02,81.75 C12.51,80.51 9.54,67.35 6.42,52.50 C3.29,37.65 0.57,25.31 0.37,25.08 ZM 163.18 67.53 L 162.87 84.00 L 148.00 84.00 L 148.00 37.00 L 163.00 37.00 L 163.00 44.07 L 166.09 40.55 C171.77,34.08 181.57,33.33 186.34,39.00 C187.70,40.61 188.98,42.44 189.19,43.06 C189.40,43.69 191.35,42.41 193.54,40.23 C199.97,33.80 209.54,33.29 214.45,39.12 C218.33,43.74 219.07,48.45 218.77,66.70 L 218.50 83.50 L 203.50 83.50 L 203.00 66.21 C202.60,52.32 202.21,48.74 201.00,47.98 C198.69,46.52 196.45,46.82 193.86,48.91 C191.60,50.74 191.48,51.48 191.00,67.16 L 190.50 83.50 L 175.50 83.50 L 175.00 66.21 C174.46,47.52 174.09,46.38 169.00,47.56 C163.85,48.74 163.52,49.85 163.18,67.53 ZM 245.99 82.17 C242.30,84.89 233.80,85.62 229.33,83.60 C220.90,79.78 219.62,66.26 227.17,60.88 C228.84,59.69 234.32,57.55 239.35,56.11 C247.79,53.70 248.52,53.29 248.81,50.78 C249.07,48.56 248.64,47.95 246.48,47.41 C242.51,46.41 234.65,47.63 230.11,49.94 C227.89,51.08 225.84,52.00 225.54,52.00 C225.24,52.00 225.00,49.35 225.00,46.11 C225.00,40.46 225.13,40.17 228.25,38.69 C237.26,34.42 250.74,33.94 257.20,37.66 C263.48,41.27 264.50,45.16 264.50,65.50 L 264.50 83.50 L 257.25 83.79 C250.52,84.07 250.00,83.94 250.00,82.04 C250.00,79.48 249.61,79.49 245.99,82.17 ZM 98.87 83.57 C95.44,85.34 89.48,85.35 85.50,83.60 C80.46,81.37 78.67,78.52 78.19,71.98 C77.78,66.31 77.92,65.88 81.16,62.64 C83.41,60.39 86.58,58.65 90.53,57.51 C101.00,54.47 103.26,53.54 104.33,51.83 C108.20,45.70 92.35,45.23 83.75,51.22 L 81.00 53.14 L 81.00 39.89 L 85.75 37.73 C89.54,36.00 92.44,35.56 100.08,35.53 C109.11,35.50 109.87,35.66 113.43,38.38 C119.39,42.92 120.00,45.49 120.00,66.01 L 120.00 84.09 L 112.79 83.79 C106.13,83.52 105.54,83.32 105.02,81.12 C104.51,78.92 104.36,78.87 103.06,80.43 C102.28,81.37 100.40,82.78 98.87,83.57 ZM 329.43 84.02 C323.90,86.13 314.97,84.20 310.40,79.91 C306.63,76.36 306.01,72.01 306.01,48.75 L 306.00 27.00 L 321.89 27.00 L 322.20 31.75 L 322.50 36.50 L 332.00 37.11 L 332.00 48.00 L 322.00 48.00 L 322.00 58.80 C322.00,65.87 322.41,70.01 323.20,70.80 C323.86,71.46 326.11,72.00 328.20,72.00 L 332.00 72.00 L 332.00 77.52 C332.00,82.54 331.76,83.14 329.43,84.02 ZM 286.10 70.00 L 285.50 83.50 L 278.46 83.79 C274.58,83.95 271.09,83.76 270.71,83.37 C270.32,82.98 270.00,72.39 270.00,59.83 L 270.00 37.00 L 286.00 37.00 L 286.09 47.50 L 288.11 43.67 C289.48,41.07 291.47,39.24 294.31,37.94 C301.65,34.61 302.00,34.88 302.00,44.00 L 302.00 52.00 L 297.75 52.00 C294.37,52.01 287.77,54.57 286.85,56.24 C286.77,56.38 286.44,62.58 286.10,70.00 ZM 142.03 24.00 L 141.50 83.50 L 134.46 83.79 C130.58,83.95 127.09,83.76 126.71,83.37 C126.32,82.98 126.00,69.47 126.00,53.33 L 126.00 24.00 ZM 95.23 74.76 C97.76,75.97 100.79,75.46 102.89,73.47 C104.59,71.86 105.72,62.00 104.21,62.00 C102.21,62.00 94.46,65.74 93.12,67.35 C91.31,69.54 92.41,73.41 95.23,74.76 ZM 239.17 74.40 C242.14,76.49 243.20,76.42 246.37,73.93 C248.58,72.18 249.00,71.06 249.00,66.86 C249.00,61.30 248.83,61.25 241.00,64.88 C236.51,66.96 235.56,71.88 239.17,74.40 Z" fill="rgb(5,81,219)"/>
<path d="M 0.37 25.08 C0.49,25.22 1.52,29.73 3.00,36.52 C1.99,32.04 1.25,29.03 1.02,28.50 C0.49,27.30 0.11,43.09 0.07,67.75 L 0.00 109.00 L 0.00 66.83 C0.00,43.64 0.17,24.85 0.37,25.08 Z" fill="rgb(123,159,235)"/>
<path d="M 409.85 0.00 L 415.52 0.00 L 418.39 2.66 L 421.25 5.31 L 420.55 15.91 C419.34,34.31 417.69,39.00 412.46,39.00 C408.35,39.00 407.06,36.00 405.51,22.91 C403.55,6.39 403.56,6.29 406.92,2.92 ZM 461.00 53.97 L 461.00 80.65 L 458.69 82.83 C454.80,86.47 449.97,85.75 442.19,80.37 C427.07,69.90 423.99,66.51 425.86,62.40 C427.62,58.54 431.10,58.44 439.73,62.02 C449.70,66.16 457.04,69.82 459.25,71.77 C460.91,73.23 461.00,72.31 461.00,53.97 ZM 397.05 48.47 C395.43,49.31 393.74,49.96 393.30,49.91 C391.11,49.66 368.25,38.65 366.65,37.07 C363.76,34.22 364.18,28.11 367.46,25.28 C371.53,21.78 374.74,22.38 383.27,28.25 C396.23,37.16 400.00,40.71 400.00,44.02 C400.00,46.25 399.30,47.31 397.05,48.47 ZM 418.55 105.55 C416.75,107.35 415.01,108.00 412.03,108.00 C408.52,108.00 407.70,107.56 405.99,104.75 C404.90,102.96 404.02,100.60 404.02,99.50 C404.04,98.08 406.56,75.69 406.97,73.32 C407.21,71.96 410.80,70.00 413.05,70.00 C417.34,70.00 418.70,73.04 419.92,85.42 C421.48,101.21 421.38,102.71 418.55,105.55 ZM 461.00 28.18 L 461.00 34.63 L 458.25 37.15 C455.99,39.22 440.08,46.81 432.61,49.39 C427.04,51.31 423.59,42.54 428.25,38.30 C433.31,33.69 450.22,23.00 452.45,23.00 C453.77,23.00 456.23,24.17 457.92,25.59 ZM 386.34 78.07 C375.28,85.85 370.88,86.93 367.04,82.81 C364.19,79.75 364.31,73.99 367.29,71.19 C369.59,69.04 391.77,59.00 394.24,59.00 C396.96,59.00 400.00,62.11 400.00,64.90 C400.00,68.22 399.09,69.10 386.34,78.07 Z" fill="rgb(249,195,42)"/>
<path d="M 0.07 67.75 C0.11,43.09 0.49,27.30 1.02,28.50 C1.50,29.60 4.19,41.53 7.00,55.00 C9.80,68.47 12.52,80.51 13.03,81.75 C13.89,83.83 14.59,84.00 22.42,84.00 C27.07,84.00 31.10,83.65 31.36,83.22 C31.63,82.80 33.70,74.15 35.97,64.01 C38.24,53.86 40.28,45.39 40.50,45.16 C40.97,44.70 40.92,44.50 45.79,66.50 L 49.56 83.50 L 57.94 83.79 C62.54,83.95 66.67,83.73 67.10,83.29 C67.82,82.56 80.00,27.66 80.00,25.13 C80.00,24.39 77.47,24.00 72.73,24.00 L 65.46 24.00 L 62.64 37.75 C61.09,45.31 59.36,53.71 58.79,56.41 C58.12,59.60 57.50,60.83 57.01,59.91 C56.60,59.14 54.52,50.74 52.38,41.25 L 48.50 24.00 L 40.79 24.00 L 33.08 24.00 L 32.14 27.75 C31.62,29.81 29.71,38.14 27.89,46.25 C26.07,54.36 24.32,61.00 24.00,61.00 C23.68,61.00 21.91,53.24 20.06,43.75 C18.21,34.26 16.49,25.94 16.24,25.25 C15.93,24.39 13.30,24.00 7.89,24.00 L 0.00 24.00 L 0.00 12.00 L 0.00 0.00 L 204.92 -0.00 L 409.85 -0.00 L 406.92 2.92 C403.56,6.29 403.55,6.39 405.51,22.91 C407.06,36.00 408.35,39.00 412.46,39.00 C417.69,39.00 419.34,34.31 420.55,15.91 L 421.25 5.31 L 418.39 2.66 L 415.52 0.00 L 438.26 0.00 L 461.00 0.00 L 461.00 14.09 L 461.00 28.18 L 457.92 25.59 C456.23,24.17 453.77,23.00 452.45,23.00 C450.22,23.00 433.31,33.69 428.25,38.30 C423.59,42.54 427.04,51.31 432.61,49.39 C440.08,46.81 455.99,39.22 458.25,37.15 L 461.00 34.63 L 461.00 53.97 C461.00,72.31 460.91,73.23 459.25,71.77 C457.04,69.82 449.70,66.16 439.73,62.02 C431.10,58.44 427.62,58.54 425.86,62.40 C423.99,66.51 427.07,69.90 442.19,80.37 C449.97,85.75 454.80,86.47 458.69,82.83 L 461.00 80.65 L 461.00 94.83 L 461.00 109.00 L 230.50 109.00 L 0.00 109.00 L 0.07 67.75 ZM 418.55 105.55 C421.38,102.71 421.48,101.21 419.92,85.42 C418.70,73.04 417.34,70.00 413.05,70.00 C410.80,70.00 407.21,71.96 406.97,73.32 C406.56,75.69 404.04,98.08 404.02,99.50 C404.02,100.60 404.90,102.96 405.99,104.75 C407.70,107.56 408.52,108.00 412.03,108.00 C415.01,108.00 416.75,107.35 418.55,105.55 ZM 98.87 83.57 C100.40,82.78 102.28,81.37 103.06,80.43 C104.36,78.87 104.51,78.92 105.02,81.12 C105.54,83.32 106.13,83.52 112.79,83.79 L 120.00 84.09 L 120.00 66.01 C120.00,45.49 119.39,42.92 113.43,38.38 C109.87,35.66 109.11,35.50 100.08,35.53 C92.44,35.56 89.54,36.00 85.75,37.73 L 81.00 39.89 L 81.00 46.51 L 81.00 53.14 L 83.75 51.22 C92.35,45.23 108.20,45.70 104.33,51.83 C103.26,53.54 101.00,54.47 90.53,57.51 C86.58,58.65 83.41,60.39 81.16,62.64 C77.92,65.88 77.78,66.31 78.19,71.98 C78.67,78.52 80.46,81.37 85.50,83.60 C89.48,85.35 95.44,85.34 98.87,83.57 ZM 245.99 82.17 C249.61,79.49 250.00,79.48 250.00,82.04 C250.00,83.94 250.52,84.07 257.25,83.79 L 264.50 83.50 L 264.50 65.50 C264.50,45.16 263.48,41.27 257.20,37.66 C250.74,33.94 237.26,34.42 228.25,38.69 C225.13,40.17 225.00,40.46 225.00,46.11 C225.00,49.35 225.24,52.00 225.54,52.00 C225.84,52.00 227.89,51.08 230.11,49.94 C234.65,47.63 242.51,46.41 246.48,47.41 C248.64,47.95 249.07,48.56 248.81,50.78 C248.52,53.29 247.79,53.70 239.35,56.11 C234.32,57.55 228.84,59.69 227.17,60.88 C219.62,66.26 220.90,79.78 229.33,83.60 C233.80,85.62 242.30,84.89 245.99,82.17 ZM 329.43 84.02 C331.76,83.14 332.00,82.54 332.00,77.52 L 332.00 72.00 L 328.20 72.00 C326.11,72.00 323.86,71.46 323.20,70.80 C322.41,70.01 322.00,65.87 322.00,58.80 L 322.00 48.00 L 327.00 48.00 L 332.00 48.00 L 332.00 42.55 L 332.00 37.11 L 327.25 36.80 L 322.50 36.50 L 322.20 31.75 L 321.89 27.00 L 313.95 27.00 L 306.00 27.00 L 306.01 48.75 C306.01,72.01 306.63,76.36 310.40,79.91 C314.97,84.20 323.90,86.13 329.43,84.02 ZM 386.34 78.07 C399.09,69.10 400.00,68.22 400.00,64.90 C400.00,62.11 396.96,59.00 394.24,59.00 C391.77,59.00 369.59,69.04 367.29,71.19 C364.31,73.99 364.19,79.75 367.04,82.81 C370.88,86.93 375.28,85.85 386.34,78.07 ZM 141.76 53.75 L 142.03 24.00 L 134.01 24.00 L 126.00 24.00 L 126.00 53.33 C126.00,69.47 126.32,82.98 126.71,83.37 C127.09,83.76 130.58,83.95 134.46,83.79 L 141.50 83.50 L 141.76 53.75 ZM 163.18 67.53 C163.52,49.85 163.85,48.74 169.00,47.56 C174.09,46.38 174.46,47.52 175.00,66.21 L 175.50 83.50 L 183.00 83.50 L 190.50 83.50 L 191.00 67.16 C191.48,51.48 191.60,50.74 193.86,48.91 C196.45,46.82 198.69,46.52 201.00,47.98 C202.21,48.74 202.60,52.32 203.00,66.21 L 203.50 83.50 L 211.00 83.50 L 218.50 83.50 L 218.77 66.70 C219.07,48.45 218.33,43.74 214.45,39.12 C209.54,33.29 199.97,33.80 193.54,40.23 C191.35,42.41 189.40,43.69 189.19,43.06 C188.98,42.44 187.70,40.61 186.34,39.00 C181.57,33.33 171.77,34.08 166.09,40.55 L 163.00 44.07 L 163.00 40.53 L 163.00 37.00 L 155.50 37.00 L 148.00 37.00 L 148.00 60.50 L 148.00 84.00 L 155.43 84.00 L 162.87 84.00 L 163.18 67.53 ZM 286.10 70.00 C286.44,62.58 286.77,56.38 286.85,56.24 C287.77,54.57 294.37,52.01 297.75,52.00 L 302.00 52.00 L 302.00 44.00 C302.00,34.88 301.65,34.61 294.31,37.94 C291.47,39.24 289.48,41.07 288.11,43.67 L 286.09 47.50 L 286.04 42.25 L 286.00 37.00 L 278.00 37.00 L 270.00 37.00 L 270.00 59.83 C270.00,72.39 270.32,82.98 270.71,83.37 C271.09,83.76 274.58,83.95 278.46,83.79 L 285.50 83.50 L 286.10 70.00 ZM 397.05 48.47 C399.30,47.31 400.00,46.25 400.00,44.02 C400.00,40.71 396.23,37.16 383.27,28.25 C374.74,22.38 371.53,21.78 367.46,25.28 C364.18,28.11 363.76,34.22 366.65,37.07 C368.25,38.65 391.11,49.66 393.30,49.91 C393.74,49.96 395.43,49.31 397.05,48.47 ZM 95.23 74.76 C92.41,73.41 91.31,69.54 93.12,67.35 C94.46,65.74 102.21,62.00 104.21,62.00 C105.72,62.00 104.59,71.86 102.89,73.47 C100.79,75.46 97.76,75.97 95.23,74.76 ZM 239.17 74.40 C235.56,71.88 236.51,66.96 241.00,64.88 C248.83,61.25 249.00,61.30 249.00,66.86 C249.00,71.06 248.58,72.18 246.37,73.93 C243.20,76.42 242.14,76.49 239.17,74.40 Z" fill="rgb(252,254,252)"/>
</g>
</svg>